<svg preserveAspectRatio="none" width="100%" height="100%" overflow="visible" style="display: block;" viewBox="0 0 1435 88.0254" fill="none" xmlns="http://www.w3.org/2000/svg">
<path id="Union" d="M19.9414 0.211914L59.0635 85.0645C59.6114 86.2587 59.9854 87.0177 59.7861 88.0254L59.7734 88.0127H40.3311L0 0.671875V0.0996094L19.9414 0.211914ZM557.168 68.541C558.638 61.0513 565.389 55.2285 573.672 55.5645C582.366 55.9128 588.83 62.8308 589.204 71.1045C589.503 77.8353 585.766 83.3226 580.087 86.3584C577.982 87.4781 575.615 88.0254 573.224 88.0254L573.211 88.0127H573.148C571.604 88.0127 570.072 87.7391 568.59 87.3037C568.291 87.2166 567.967 87.142 567.631 87.0176C559.909 84.2306 555.611 76.4663 557.168 68.541ZM738.941 0.211914L778.063 85.0645C778.611 86.2587 778.985 87.0177 778.786 88.0254L778.773 88.0127H759.331L719 0.671875V0.0996094L738.941 0.211914ZM1276.17 68.541C1277.64 61.0513 1284.39 55.2285 1292.67 55.5645C1301.37 55.9128 1307.83 62.8308 1308.2 71.1045C1308.5 77.8353 1304.77 83.3226 1299.09 86.3584C1296.98 87.4781 1294.62 88.0254 1292.22 88.0254L1292.21 88.0127H1292.15C1290.6 88.0127 1289.07 87.7391 1287.59 87.3037C1287.29 87.2166 1286.97 87.142 1286.63 87.0176C1278.91 84.2306 1274.61 76.4663 1276.17 68.541ZM80.375 88.0127H60.9199C60.6957 87.0422 61.0567 86.3204 61.6172 85.126L100.765 0.199219H120.594L80.375 88.0127ZM95.3213 69.9727C96.2305 61.7239 103.268 55.1789 112.099 55.5645C120.929 55.9501 127.194 62.8555 127.556 71.0918C127.855 77.773 124.217 83.1981 118.625 86.2588C116.433 87.453 113.955 88.0127 111.464 88.0127H111.289C109.147 88.0127 107.005 87.6267 105.074 86.7061C98.6224 83.6455 94.4994 77.4375 95.3213 69.9727ZM136.624 0.149414C160.189 0.0501353 179.359 18.9118 180.38 41.9785C181.401 65.0454 164.548 84.641 141.394 88.0127H136.711L136.735 73.6553C153.376 73.3318 166.218 59.7698 166.081 43.7822C165.944 27.7948 153.177 14.7681 136.748 14.457L136.624 0.149414ZM217.933 88.0127H181.525L199.723 48.5107L217.933 88.0127ZM254.353 88.0127H234.535L194.229 0.186523H214.134L254.353 88.0127ZM291.171 87.7891L331.638 0.125L351.417 0.174805L311.187 88.0127H271.143L230.898 0.136719L250.69 0.112305L291.171 87.7891ZM341.44 55.5527C350.533 55.1422 357.757 61.9471 358.367 70.7432C358.853 77.8349 354.718 83.8699 348.378 86.7812C346.497 87.652 344.417 88.0127 342.35 88.0127H342.337C340.668 88.0126 339.024 87.7144 337.442 87.2168C337.218 87.1422 336.981 87.08 336.732 86.9805C329.297 84.2806 325.087 76.9023 326.232 69.2881C327.378 61.6738 333.432 55.9136 341.44 55.5527ZM367.609 0C391.661 0.472781 410.331 19.2349 411.203 42.3887C412.075 65.4431 395.397 84.4793 372.467 88.0127H367.423L367.497 73.6553C384.038 73.394 397.041 59.8569 396.892 43.7822C396.742 27.7077 383.851 14.7066 367.484 14.4453L367.609 0ZM448.744 88.0127H412.324L430.534 48.7217L448.744 88.0127ZM485.164 88.0127H465.272L425.066 0.162109L444.908 0.125L485.164 88.0127ZM582.191 0.274414L541.998 88.0127H501.953L461.747 0.162109L481.526 0.186523L521.981 87.6895L562.487 0.0751953L582.191 0.274414ZM598.222 0.174805C621.775 0.0380439 640.981 18.912 642.002 41.9912C643.036 65.4063 626.121 84.6908 602.954 88.0127H598.309L598.334 73.6553C614.974 73.344 627.84 59.7945 627.703 43.7822C627.566 27.7699 614.762 14.7432 598.346 14.457L598.222 0.174805ZM679.556 88.0127H643.148L661.383 48.7217L679.556 88.0127ZM716 88.0127H696.108L655.878 0.186523H675.744L716 88.0127ZM799.375 88.0127H779.92C779.696 87.0422 780.057 86.3204 780.617 85.126L819.765 0.199219H839.594L799.375 88.0127ZM814.321 69.9727C815.231 61.7239 822.268 55.1789 831.099 55.5645C839.929 55.9501 846.194 62.8555 846.556 71.0918C846.855 77.773 843.217 83.1981 837.625 86.2588C835.433 87.453 832.955 88.0127 830.464 88.0127H830.289C828.147 88.0127 826.005 87.6267 824.074 86.7061C817.622 83.6455 813.499 77.4375 814.321 69.9727ZM855.624 0.149414C879.189 0.0501353 898.359 18.9118 899.38 41.9785C900.401 65.0454 883.548 84.641 860.394 88.0127H855.711L855.735 73.6553C872.376 73.3318 885.218 59.7698 885.081 43.7822C884.944 27.7948 872.177 14.7681 855.748 14.457L855.624 0.149414ZM936.933 88.0127H900.525L918.723 48.5107L936.933 88.0127ZM973.353 88.0127H953.535L913.229 0.186523H933.134L973.353 88.0127ZM1010.17 87.7891L1050.64 0.125L1070.42 0.174805L1030.19 88.0127H990.143L949.898 0.136719L969.69 0.112305L1010.17 87.7891ZM1060.44 55.5527C1069.53 55.1422 1076.76 61.9471 1077.37 70.7432C1077.85 77.8349 1073.72 83.8699 1067.38 86.7812C1065.5 87.652 1063.42 88.0127 1061.35 88.0127H1061.34C1059.67 88.0126 1058.02 87.7144 1056.44 87.2168C1056.22 87.1422 1055.98 87.08 1055.73 86.9805C1048.3 84.2806 1044.09 76.9023 1045.23 69.2881C1046.38 61.6738 1052.43 55.9136 1060.44 55.5527ZM1086.61 0C1110.66 0.472781 1129.33 19.2349 1130.2 42.3887C1131.08 65.4431 1114.4 84.4793 1091.47 88.0127H1086.42L1086.5 73.6553C1103.04 73.394 1116.04 59.8569 1115.89 43.7822C1115.74 27.7077 1102.85 14.7066 1086.48 14.4453L1086.61 0ZM1167.74 88.0127H1131.32L1149.53 48.7217L1167.74 88.0127ZM1204.16 88.0127H1184.27L1144.07 0.162109L1163.91 0.125L1204.16 88.0127ZM1301.19 0.274414L1261 88.0127H1220.95L1180.75 0.162109L1200.53 0.186523L1240.98 87.6895L1281.49 0.0751953L1301.19 0.274414ZM1317.22 0.174805C1340.77 0.0380439 1359.98 18.912 1361 41.9912C1362.04 65.4063 1345.12 84.6908 1321.95 88.0127H1317.31L1317.33 73.6553C1333.97 73.344 1346.84 59.7945 1346.7 43.7822C1346.57 27.7699 1333.76 14.7432 1317.35 14.457L1317.22 0.174805ZM1398.56 88.0127H1362.15L1380.38 48.7217L1398.56 88.0127ZM1435 88.0127H1415.11L1374.88 0.186523H1394.74L1435 88.0127ZM598.222 26.6504C607.75 26.5385 615.261 34.2521 615.609 43.2598C615.983 52.8738 608.851 61.1942 598.345 61.5605L598.222 26.6504ZM1317.22 26.6504C1326.75 26.5385 1334.26 34.2521 1334.61 43.2598C1334.98 52.8738 1327.85 61.1942 1317.34 61.5605L1317.22 26.6504ZM136.599 26.6748C146.114 26.4882 153.638 34.2644 153.999 43.2471C154.373 52.852 147.248 61.2005 136.735 61.5488L136.599 26.6748ZM367.423 26.6875C376.951 26.5135 384.536 34.2776 384.822 43.4346C385.121 52.9896 377.897 61.2875 367.51 61.5488L367.423 26.6875ZM855.599 26.6748C865.114 26.4882 872.638 34.2644 872.999 43.2471C873.373 52.852 866.248 61.2005 855.735 61.5488L855.599 26.6748ZM1086.42 26.6875C1095.95 26.5135 1103.54 34.2776 1103.82 43.4346C1104.12 52.9896 1096.9 61.2875 1086.51 61.5488L1086.42 26.6875ZM309.492 0.149414L291.245 39.3662L272.799 0.0869141L309.492 0.149414ZM1028.49 0.149414L1010.25 39.3662L991.799 0.0869141L1028.49 0.149414ZM60.4092 39.3535L42.0117 0.149414L78.7305 0.125L60.4092 39.3535ZM522.02 39.3535L503.685 0.236328L540.354 0.112305L522.02 39.3535ZM779.409 39.3535L761.012 0.149414L797.73 0.125L779.409 39.3535ZM1241.02 39.3535L1222.68 0.236328L1259.35 0.112305L1241.02 39.3535Z" fill="var(--fill-0, white)" fill-opacity="0.5"/>
</svg>
