<svg preserveAspectRatio="none" width="100%" height="100%" overflow="visible" style="display: block;" viewBox="0 0 1440 177.05" fill="none" xmlns="http://www.w3.org/2000/svg">
<g id="Group">
<path id="Vector" d="M1090.05 177.025H1009.52L928.654 0.325322L968.434 0.375371L1049.8 176.374L1131.26 0.150148L1170.89 0.550544L1090.05 177.025Z" fill="var(--fill-0, #F2F1EA)"/>
<path id="Vector_2" d="M625.85 177.025H545.314L464.377 0.275272L504.182 0.225223L585.594 176.575L666.982 0.250247L706.761 0.350346L625.85 177.025Z" fill="var(--fill-0, #F2F1EA)"/>
<path id="Vector_3" d="M120.215 177.025H81.112L0 1.35134V0.200198L40.1051 0.425421L118.787 171.094C119.889 173.497 120.641 175.023 120.24 177.05L120.215 177.025Z" fill="var(--fill-0, #F2F1EA)"/>
<path id="Vector_4" d="M975.748 177.025H935.743L854.882 0.325322L894.787 0.250247L975.748 177.025Z" fill="var(--fill-0, #F2F1EA)"/>
<path id="Vector_5" d="M511.546 177.025H471.692L390.63 0.375371H430.66L511.546 177.025Z" fill="var(--fill-0, #F2F1EA)"/>
<path id="Vector_6" d="M1440 177.025H1400L1319.08 0.375371H1359.04L1440 177.025Z" fill="var(--fill-0, #F2F1EA)"/>
<path id="Vector_7" d="M161.648 177.025H122.52C122.069 175.073 122.795 173.622 123.922 171.219L202.655 0.400396H242.534L161.648 177.025Z" fill="var(--fill-0, #F2F1EA)"/>
<path id="Vector_8" d="M749.096 177.025H738.95L739.101 148.146C772.367 147.621 798.519 120.394 798.219 88.0621C797.918 55.7301 771.991 29.5792 739.076 29.0537L739.326 0C787.698 0.95094 825.248 38.6882 827.001 85.2593C828.755 131.63 795.213 169.918 749.096 177.025Z" fill="var(--fill-0, #F2F1EA)"/>
<path id="Vector_9" d="M1212.65 177.025H1203.3L1203.35 148.146C1236.82 147.521 1262.7 120.269 1262.42 88.0621C1262.14 55.8552 1236.39 29.6543 1203.38 29.0787L1203.13 0.350346C1250.5 0.0750742 1289.12 38.0376 1291.18 84.4585C1293.26 131.555 1259.24 170.343 1212.65 177.025Z" fill="var(--fill-0, #F2F1EA)"/>
<path id="Vector_10" d="M284.368 177.025H274.949L274.999 148.146C308.466 147.496 334.292 120.219 334.017 88.0621C333.741 55.9053 308.065 29.7044 275.024 29.0787L274.774 0.300297C322.168 0.100099 360.72 38.0376 362.774 84.4335C364.828 130.829 330.936 170.243 284.368 177.025Z" fill="var(--fill-0, #F2F1EA)"/>
<path id="Vector_11" d="M1152.83 177.025H1152.7C1149.6 177.025 1146.51 176.474 1143.53 175.599C1142.93 175.423 1142.28 175.273 1141.6 175.023C1126.07 169.417 1117.43 153.802 1120.56 137.861C1123.52 122.796 1137.1 111.085 1153.75 111.76C1171.24 112.461 1184.24 126.375 1184.99 143.016C1185.59 156.555 1178.08 167.591 1166.65 173.697C1162.42 175.949 1157.66 177.05 1152.85 177.05L1152.83 177.025Z" fill="var(--fill-0, #F2F1EA)"/>
<path id="Vector_12" d="M224.198 177.025H223.822C219.513 177.025 215.205 176.249 211.322 174.397C198.346 168.241 190.054 155.754 191.708 140.739C193.536 124.148 207.69 110.985 225.45 111.761C243.211 112.536 255.811 126.425 256.537 142.991C257.138 156.43 249.824 167.34 238.576 173.497C234.168 175.899 229.183 177.025 224.173 177.025H224.198Z" fill="var(--fill-0, #F2F1EA)"/>
<path id="Vector_13" d="M688.5 177.025C685.143 177.025 681.836 176.424 678.655 175.423C678.204 175.273 677.728 175.148 677.227 174.948C662.272 169.518 653.805 154.678 656.11 139.363C658.415 124.048 670.589 112.461 686.696 111.735C704.983 110.91 719.512 124.598 720.739 142.291C721.716 156.555 713.399 168.692 700.649 174.548C696.866 176.299 692.683 177.025 688.525 177.025H688.5Z" fill="var(--fill-0, #F2F1EA)"/>
<path id="Vector_14" d="M438.3 177.025H365.079L401.677 97.5715L438.3 177.025Z" fill="var(--fill-0, #F2F1EA)"/>
<path id="Vector_15" d="M902.502 177.025H829.256L865.879 97.9969L902.502 177.025Z" fill="var(--fill-0, #F2F1EA)"/>
<path id="Vector_16" d="M1366.7 177.025H1293.48L1330.16 97.9969L1366.7 177.025Z" fill="var(--fill-0, #F2F1EA)"/>
<path id="Vector_17" d="M158.341 0.250247L121.493 79.1533L84.4937 0.300297L158.341 0.250247Z" fill="var(--fill-0, #F2F1EA)"/>
<path id="Vector_18" d="M622.443 0.300297L585.744 79.1783L548.645 0.175173L622.443 0.300297Z" fill="var(--fill-0, #F2F1EA)"/>
<path id="Vector_19" d="M1086.74 0.225223L1049.87 79.1532L1013 0.47547L1086.74 0.225223Z" fill="var(--fill-0, #F2F1EA)"/>
<path id="Vector_20" d="M739.126 123.797L738.95 53.6781C758.114 53.3277 773.369 68.9432 773.945 87.3614C774.546 106.58 760.017 123.272 739.126 123.797Z" fill="var(--fill-0, #F2F1EA)"/>
<path id="Vector_21" d="M1203.38 123.822L1203.13 53.603C1222.29 53.3778 1237.4 68.8931 1238.1 87.011C1238.85 106.355 1224.49 123.097 1203.35 123.822H1203.38Z" fill="var(--fill-0, #F2F1EA)"/>
<path id="Vector_22" d="M274.999 123.797L274.724 53.653C293.862 53.2777 308.992 68.9181 309.718 86.986C310.47 106.305 296.141 123.097 274.999 123.797Z" fill="var(--fill-0, #F2F1EA)"/>
</g>
</svg>
